<svg width="1200" height="520" viewBox="0 0 1200 520" fill="none" xmlns="http://www.w3.org/2000/svg" role="img" aria-labelledby="title desc">
  <title id="title">Deerstand at dawn</title>
  <desc id="desc">A stylized deerstand on a hillside at dawn with pine trees and a deer in the foreground.</desc>
  <defs>
    <linearGradient id="sky" x1="0" y1="0" x2="0" y2="1">
      <stop offset="0%" stop-color="#112941"/>
      <stop offset="56%" stop-color="#4A6A78"/>
      <stop offset="100%" stop-color="#E7D7B7"/>
    </linearGradient>
    <radialGradient id="sunGlow" cx="0" cy="0" r="1" gradientUnits="userSpaceOnUse" gradientTransform="translate(818 168) rotate(90) scale(124 164)">
      <stop offset="0%" stop-color="#F4C467" stop-opacity="0.95"/>
      <stop offset="100%" stop-color="#F4C467" stop-opacity="0"/>
    </radialGradient>
  </defs>

  <rect width="1200" height="520" fill="url(#sky)"/>
  <ellipse cx="818" cy="166" rx="154" ry="114" fill="url(#sunGlow)"/>
  <circle cx="810" cy="165" r="56" fill="#F4C467"/>

  <path d="M0 396C124 366 236 356 356 378C469 399 574 434 676 432C790 430 885 379 985 368C1062 360 1128 376 1200 404V520H0V396Z" fill="#375243"/>
  <path d="M0 430C139 408 248 405 362 424C487 445 585 484 715 482C829 480 930 442 1032 436C1091 432 1145 440 1200 456V520H0V430Z" fill="#23382C"/>

  <g fill="#16241B">
    <path d="M95 425L124 360L153 425H136L154 474H94L112 425H95Z"/>
    <path d="M186 425L219 348L252 425H234L253 482H185L204 425H186Z"/>
    <path d="M1043 430L1073 356L1103 430H1086L1104 480H1042L1060 430H1043Z"/>
    <path d="M1118 438L1142 382L1166 438H1153L1168 480H1116L1131 438H1118Z"/>
  </g>

  <g stroke="#5A3B28" stroke-width="10" stroke-linecap="round" stroke-linejoin="round">
    <line x1="712" y1="236" x2="650" y2="425"/>
    <line x1="770" y1="236" x2="838" y2="425"/>
    <line x1="812" y1="236" x2="744" y2="425"/>
    <line x1="870" y1="236" x2="912" y2="425"/>
    <line x1="688" y1="325" x2="816" y2="268"/>
    <line x1="760" y1="270" x2="816" y2="425"/>
    <line x1="704" y1="306" x2="886" y2="306"/>
  </g>

  <g fill="#8A6240" stroke="#4B3222" stroke-width="6" stroke-linejoin="round">
    <rect x="692" y="182" width="188" height="46" rx="7"/>
    <rect x="720" y="142" width="98" height="52" rx="7"/>
    <rect x="726" y="196" width="118" height="36" rx="5"/>
    <rect x="795" y="198" width="17" height="54" rx="4"/>
    <rect x="760" y="232" width="30" height="24" rx="3"/>
  </g>

  <g fill="#1A1F17">
    <ellipse cx="353" cy="418" rx="34" ry="21"/>
    <rect x="382" y="422" width="48" height="10" rx="5"/>
    <rect x="426" y="420" width="11" height="36" rx="5"/>
    <rect x="390" y="430" width="8" height="28" rx="4"/>
    <rect x="410" y="430" width="8" height="28" rx="4"/>
    <path d="M326 405L314 388" stroke="#1A1F17" stroke-width="6" stroke-linecap="round"/>
    <path d="M338 398L329 380" stroke="#1A1F17" stroke-width="6" stroke-linecap="round"/>
    <path d="M351 396L356 378" stroke="#1A1F17" stroke-width="6" stroke-linecap="round"/>
    <path d="M362 397L374 381" stroke="#1A1F17" stroke-width="6" stroke-linecap="round"/>
  </g>
</svg>
