<svg width="1200" height="520" viewBox="0 0 1200 520" fill="none" xmlns="http://www.w3.org/2000/svg" role="img" aria-labelledby="title desc">
  <title id="title">Deerstand at dawn</title>
  <desc id="desc">A stylized deerstand on a hill at dawn, with pine trees and a deer silhouette.</desc>
  <defs>
    <linearGradient id="sky" x1="0" y1="0" x2="0" y2="1">
      <stop offset="0%" stop-color="#0E2A47"/>
      <stop offset="55%" stop-color="#496A78"/>
      <stop offset="100%" stop-color="#E9D8B4"/>
    </linearGradient>
    <linearGradient id="sunGlow" x1="0" y1="0" x2="0" y2="1">
      <stop offset="0%" stop-color="#F7C66F" stop-opacity="0.95"/>
      <stop offset="100%" stop-color="#F7C66F" stop-opacity="0"/>
    </linearGradient>
  </defs>

  <rect width="1200" height="520" fill="url(#sky)"/>
  <ellipse cx="810" cy="160" rx="150" ry="110" fill="url(#sunGlow)"/>
  <circle cx="812" cy="163" r="54" fill="#F1BE6B"/>

  <path d="M0 390C118 360 177 352 272 360C372 368 470 406 579 406C678 406 762 356 861 345C951 335 1037 360 1200 404V520H0V390Z" fill="#31493C"/>
  <path d="M0 430C134 410 228 398 332 410C440 423 540 462 660 460C765 458 842 420 930 412C1029 404 1125 428 1200 448V520H0V430Z" fill="#223429"/>

  <g fill="#16241B">
    <path d="M88 420L116 355L144 420H128L144 470H88L104 420H88Z"/>
    <path d="M180 420L210 344L240 420H224L242 478H178L196 420H180Z"/>
    <path d="M1038 426L1067 352L1096 426H1080L1097 476H1037L1054 426H1038Z"/>
    <path d="M1112 438L1135 382L1158 438H1146L1160 478H1110L1124 438H1112Z"/>
  </g>

  <g stroke="#4A3525" stroke-width="10" stroke-linecap="round">
    <line x1="706" y1="210" x2="646" y2="420"/>
    <line x1="782" y1="210" x2="734" y2="420"/>
    <line x1="738" y1="210" x2="812" y2="420"/>
    <line x1="816" y1="210" x2="888" y2="420"/>
    <line x1="656" y1="315" x2="874" y2="252"/>
    <line x1="716" y1="267" x2="804" y2="223"/>
  </g>

  <g fill="#7A5639" stroke="#402D20" stroke-width="6">
    <rect x="690" y="176" width="148" height="48" rx="6"/>
    <rect x="718" y="136" width="92" height="58" rx="6"/>
    <rect x="790" y="190" width="18" height="58" rx="3"/>
    <rect x="736" y="196" width="52" height="15" rx="3"/>
  </g>

  <g fill="#1A2018">
    <path d="M303 408C318 392 342 389 354 404C364 417 357 430 341 435C330 438 316 435 307 426C300 419 299 413 303 408Z"/>
    <rect x="342" y="422" width="50" height="11" rx="5"/>
    <rect x="390" y="417" width="12" height="37" rx="5"/>
    <rect x="352" y="430" width="8" height="29" rx="4"/>
    <rect x="375" y="430" width="8" height="29" rx="4"/>
    <path d="M303 406L292 390" stroke="#1A2018" stroke-width="6" stroke-linecap="round"/>
    <path d="M313 401L304 384" stroke="#1A2018" stroke-width="6" stroke-linecap="round"/>
    <path d="M321 401L328 383" stroke="#1A2018" stroke-width="6" stroke-linecap="round"/>
    <path d="M330 406L343 392" stroke="#1A2018" stroke-width="6" stroke-linecap="round"/>
  </g>

  <g fill="#F6EFE1" opacity="0.92">
    <rect x="84" y="64" width="430" height="122" rx="18"/>
  </g>
  <g fill="#1F2A24">
    <text x="116" y="110" font-family="Segoe UI, Arial, sans-serif" font-size="42" font-weight="700">DeerHunter</text>
    <text x="116" y="148" font-family="Segoe UI, Arial, sans-serif" font-size="22">Supervisor, dashboard, and control plane</text>
    <text x="116" y="176" font-family="Segoe UI, Arial, sans-serif" font-size="22">for long-running child processes and AI agents</text>
  </g>
</svg>
